# xmcd
#
# Track frame offsets:
#	150
#	22291
#	38844
#	56194
#	75008
#	97714
#	118490
#	136130
#	158289
#	181930
#
# Disc length: 2528 seconds
# Revision: 0
# Processed by: cddbd v1.5.2PL0 Copyright (c) Steve Scherf et al.
# Submitted via: dBpowerAMP V12.0
#
DISCID=7209de0a
DTITLE=Synthetic Breed - With Full Force - Live in Germany
DYEAR=2007
DGENRE=Industrial
TTITLE0=Fragile
TTITLE1=Chaos
TTITLE2=Cybernetics
TTITLE3=Neuro Connectivity
TTITLE4=Re-Occurring Thought Pattern
TTITLE5=Fragmented Human Structure
TTITLE6=Catatonic
TTITLE7=Techno Sedation
TTITLE8=Paradox
TTITLE9=Inconclusive Resolution
EXTD=
EXTT0=
EXTT1=
EXTT2=
EXTT3=
EXTT4=
EXTT5=
EXTT6=
EXTT7=
EXTT8=
EXTT9=
PLAYORDER=
